<svg width="204" height="185" viewBox="0 0 204 185" fill="none" xmlns="http://www.w3.org/2000/svg">
<g filter="url(#filter0_f_146_423)">
<g clip-path="url(#clip0_146_423)">
<path d="M183.615 99.9548C186.311 100.647 188.974 99.3474 189.564 97.0516L193.854 80.3536C194.444 78.0578 192.737 75.635 190.042 74.9425L87.1116 48.4953L83.7172 61.7059C83.1273 64.0018 80.4641 65.3017 77.7689 64.6092C75.0738 63.9167 73.367 61.494 73.9569 59.1981L77.3513 45.9874L33.2266 34.6499C30.5314 33.9574 27.8682 35.2573 27.2783 37.5532L22.9879 54.2511C22.398 56.547 24.1047 58.9697 26.7999 59.6622C34.9175 61.748 40.0762 69.0706 38.2994 75.9857C36.5226 82.9007 28.473 86.8296 20.3553 84.7438C17.6602 84.0513 14.9969 85.3512 14.407 87.647L10.1166 104.345C9.5267 106.641 11.2335 109.064 13.9286 109.756L58.0533 121.094L61.4477 107.883C62.0376 105.587 64.7009 104.287 67.396 104.98C70.0912 105.672 71.7979 108.095 71.208 110.391L67.8136 123.601L170.744 150.049C173.439 150.741 176.103 149.441 176.693 147.145L180.983 130.447C181.573 128.152 179.866 125.729 177.171 125.036C169.053 122.951 163.895 115.628 165.671 108.713C167.448 101.798 175.498 97.8691 183.615 99.9548ZM76.2995 90.575C75.7096 92.8708 73.0464 94.1707 70.3512 93.4782C67.6561 92.7857 65.9493 90.363 66.5392 88.0671L68.8654 79.0139C69.4553 76.7181 72.1186 75.4182 74.8137 76.1107C77.5088 76.8032 79.2156 79.2259 78.6257 81.5218L76.2995 90.575ZM135.831 123.278L96.6268 113.204C93.9317 112.512 92.2249 110.089 92.8148 107.793C93.4047 105.497 96.068 104.198 98.7631 104.89L137.967 114.963C140.662 115.656 142.369 118.078 141.779 120.374C141.189 122.67 138.526 123.97 135.831 123.278ZM140.121 106.58L100.917 96.5065C98.2221 95.814 96.5153 93.3913 97.1052 91.0954C97.6951 88.7995 100.358 87.4996 103.054 88.1921L142.257 98.2653C144.953 98.9578 146.659 101.381 146.069 103.676C145.48 105.972 142.816 107.272 140.121 106.58ZM144.412 89.8817L105.208 79.8085C102.513 79.116 100.806 76.6933 101.396 74.3974C101.986 72.1016 104.649 70.8017 107.344 71.4942L146.548 81.5673C149.243 82.2598 150.95 84.6826 150.36 86.9784C149.77 89.2743 147.107 90.5742 144.412 89.8817Z" fill="white"/>
</g>
</g>
<defs>
<filter id="filter0_f_146_423" x="-9.53235" y="-10" width="223.036" height="204.698" filterUnits="userSpaceOnUse" color-interpolation-filters="sRGB">
<feFlood flood-opacity="0" result="BackgroundImageFix"/>
<feBlend mode="normal" in="SourceGraphic" in2="BackgroundImageFix" result="shape"/>
<feGaussianBlur stdDeviation="5" result="effect1_foregroundBlur_146_423"/>
</filter>
<clipPath id="clip0_146_423">
<rect width="171.987" height="146.507" fill="white" transform="translate(36.9272) rotate(14.41)"/>
</clipPath>
</defs>
</svg>
