<svg id="Layer_1" enable-background="new 0 0 512 512" height="512" viewBox="0 0 512 512" width="512" xmlns="http://www.w3.org/2000/svg"><g><path d="m497 210.75c8.284 0 15-6.716 15-15v-60.25c0-8.284-6.716-15-15-15h-316.375v47.667c0 8.284-6.716 15-15 15s-15-6.716-15-15v-47.667h-135.625c-8.284 0-15 6.716-15 15v60.25c0 8.284 6.716 15 15 15 24.951 0 45.25 20.299 45.25 45.25s-20.299 45.25-45.25 45.25c-8.284 0-15 6.716-15 15v60.25c0 8.284 6.716 15 15 15h135.625v-47.667c0-8.284 6.716-15 15-15s15 6.716 15 15v47.667h316.375c8.284 0 15-6.716 15-15v-60.25c0-8.284-6.716-15-15-15-24.951 0-45.25-20.299-45.25-45.25s20.299-45.25 45.25-45.25zm-316.375 61.583c0 8.284-6.716 15-15 15s-15-6.716-15-15v-32.666c0-8.284 6.716-15 15-15s15 6.716 15 15zm195.875 58.917h-120.5c-8.284 0-15-6.716-15-15s6.716-15 15-15h120.5c8.284 0 15 6.716 15 15s-6.716 15-15 15zm0-60.25h-120.5c-8.284 0-15-6.716-15-15s6.716-15 15-15h120.5c8.284 0 15 6.716 15 15s-6.716 15-15 15zm0-60.25h-120.5c-8.284 0-15-6.716-15-15s6.716-15 15-15h120.5c8.284 0 15 6.716 15 15s-6.716 15-15 15z"/></g></svg>